ffmpeg version N-82167-g5e96558 Copyright (c) 2000-2016 the FFmpeg developers
  built with gcc 5.4.0 (Ubuntu 5.4.0-6ubuntu1~16.04.2) 20160609
  configuration: --prefix=/root/ffmpeg_build --pkg-config-flags=--static --extra-cflags=-I/root/ffmpeg_build/include --extra-ldflags=-L/root/ffmpeg_build/lib --bindir=/root/bin --enable-gpl --enable-libass --enable-libfdk-aac --enable-libfreetype --enable-libmp3lame --enable-libopus --enable-libtheora --enable-libvorbis --enable-libx264 --enable-libx265 --enable-nonfree
  libavutil      55. 35.100 / 55. 35.100
  libavcodec     57. 65.100 / 57. 65.100
  libavformat    57. 57.100 / 57. 57.100
  libavdevice    57.  2.100 / 57.  2.100
  libavfilter     6. 66.100 /  6. 66.100
  libswscale      4.  3.100 /  4.  3.100
  libswresample   2.  4.100 /  2.  4.100
  libpostproc    54.  2.100 / 54.  2.100
Input #0, matroska,webm, from '/media/yubikiri/bot/queue/3AnimePahe_Detective_Conan_-_030_720p_Fansub.mkv':
  Metadata:
    title           : 3|Text||0|0
    ENCODER         : Lavf57.57.100
  Duration: 00:24:30.60, start: 0.000000, bitrate: 962 kb/s
    Stream #0:0: Video: mpeg4 (Simple Profile), yuv420p, 640x480 [SAR 1:1 DAR 4:3], 23.98 fps, 23.98 tbr, 1k tbn, 23.98 tbc (default)
    Metadata:
      DURATION        : 00:24:30.596000000
    Stream #0:1: Audio: mp3, 48000 Hz, stereo, s16p, 128 kb/s (default)
    Metadata:
      DURATION        : 00:24:30.552000000
[libx264 @ 0x3b02a20] using SAR=1/1
[libx264 @ 0x3b02a20] using cpu capabilities: MMX2 SSE2Fast SSSE3 SSE4.2 AVX FMA3 AVX2 LZCNT BMI2
[libx264 @ 0x3b02a20] profile High, level 3.1
[libx264 @ 0x3b02a20] 264 - core 148 r2643 5c65704 - H.264/MPEG-4 AVC codec - Copyleft 2003-2015 - http://www.videolan.org/x264.html - options: cabac=1 ref=8 deblock=1:1:1 analyse=0x3:0x133 me=umh subme=7 psy=1 psy_rd=0.00:0.00 mixed_ref=1 me_range=8 chroma_me=1 trellis=0 8x8dct=1 cqm=0 deadzone=21,11 fast_pskip=1 chroma_qp_offset=0 threads=8 lookahead_threads=2 sliced_threads=0 nr=0 decimate=1 interlaced=0 bluray_compat=0 constrained_intra=0 bframes=3 b_pyramid=2 b_adapt=2 b_bias=0 direct=1 weightb=1 open_gop=0 weightp=2 keyint=240 keyint_min=24 scenecut=40 intra_refresh=0 rc_lookahead=60 rc=crf mbtree=1 crf=27.0 qcomp=0.60 qpmin=0 qpmax=69 qpstep=4 ip_ratio=1.40 aq=1:1.00
[libfdk_aac @ 0x3b03dc0] Note, the VBR setting is unsupported and only works with some parameter combinations
Output #0, mp4, to '/media/yubikiri/bot/queue/3AnimePahe_Detective_Conan_-_030_720p_Fansub.mkv_encoded.mp4':
  Metadata:
    encoder         : Lavf57.57.100
    Stream #0:0: Video: h264 (libx264) ([33][0][0][0] / 0x0021), yuv420p, 640x480 [SAR 1:1 DAR 4:3], q=-1--1, 23.98 fps, 11988 tbn, 23.98 tbc (default)
    Metadata:
      encoder         : Lavc57.65.100 libx264
    Side data:
      cpb: bitrate max/min/avg: 0/0/0 buffer size: 0 vbv_delay: -1
    Stream #0:1: Audio: aac (libfdk_aac) (HE-AACv2) ([64][0][0][0] / 0x0040), 48000 Hz, stereo, s16, 48 kb/s (default)
    Metadata:
      encoder         : Lavc57.65.100 libfdk_aac
Stream mapping:
  Stream #0:0 -> #0:0 (mpeg4 (native) -> h264 (libx264))
  Stream #0:1 -> #0:1 (mp3 (native) -> aac (libfdk_aac))
Press [q] to stop, [?] for help
frame=  140 fps=0.0 q=32.0 size=     121kB time=00:00:05.99 bitrate= 165.0kbits/s dup=1 drop=0 speed=11.7x    frame=  256 fps=251 q=32.0 size=     265kB time=00:00:10.85 bitrate= 199.9kbits/s dup=1 drop=0 speed=10.7x    frame=  314 fps=204 q=32.0 size=     498kB time=00:00:13.24 bitrate= 307.8kbits/s dup=1 drop=0 speed=8.62x    frame=  396 fps=192 q=32.0 size=     701kB time=00:00:16.66 bitrate= 344.5kbits/s dup=1 drop=0 speed=8.08x    frame=  512 fps=200 q=32.0 size=     877kB time=00:00:21.48 bitrate= 334.2kbits/s dup=1 drop=0 speed=8.38x    frame=  596 fps=195 q=32.0 size=    1039kB time=00:00:24.98 bitrate= 340.8kbits/s dup=1 drop=0 speed=8.16x    frame=  643 fps=180 q=32.0 size=    1190kB time=00:00:26.98 bitrate= 361.2kbits/s dup=1 drop=0 speed=7.57x    frame=  727 fps=179 q=32.0 size=    1390kB time=00:00:30.48 bitrate= 373.6kbits/s dup=1 drop=0 speed=7.49x    frame=  768 fps=167 q=32.0 size=    1550kB time=00:00:32.19 bitrate= 394.5kbits/s dup=1 drop=0 speed=7.02x    frame=  804 fps=158 q=32.0 size=    1741kB time=00:00:33.68 bitrate= 423.4kbits/s dup=1 drop=0 speed=6.62x    frame=  844 fps=151 q=32.0 size=    1970kB time=00:00:35.35 bitrate= 456.6kbits/s dup=1 drop=0 speed=6.32x    frame=  883 fps=145 q=32.0 size=    2206kB time=00:00:36.97 bitrate= 488.8kbits/s dup=1 drop=0 speed=6.06x    frame=  941 fps=142 q=32.0 size=    2408kB time=00:00:39.40 bitrate= 500.6kbits/s dup=1 drop=0 speed=5.96x    frame= 1012 fps=142 q=32.0 size=    2607kB time=00:00:42.34 bitrate= 504.2kbits/s dup=1 drop=0 speed=5.96x    frame= 1089 fps=143 q=32.0 size=    2837kB time=00:00:45.59 bitrate= 509.7kbits/s dup=1 drop=0 speed=5.98x    frame= 1161 fps=143 q=32.0 size=    3032kB time=00:00:48.57 bitrate= 511.4kbits/s dup=1 drop=0 speed=5.98x    frame= 1204 fps=139 q=32.0 size=    3255kB time=00:00:50.36 bitrate= 529.4kbits/s dup=1 drop=0 speed=5.81x    frame= 1267 fps=138 q=32.0 size=    3536kB time=00:00:52.97 bitrate= 546.9kbits/s dup=1 drop=0 speed=5.77x    frame= 1355 fps=140 q=32.0 size=    3749kB time=00:00:56.68 bitrate= 541.9kbits/s dup=1 drop=0 speed=5.85x    frame= 1412 fps=138 q=32.0 size=    4005kB time=00:00:59.03 bitrate= 555.8kbits/s dup=1 drop=0 speed=5.79x    frame= 1465 fps=137 q=32.0 size=    4215kB time=00:01:01.29 bitrate= 563.4kbits/s dup=1 drop=0 speed=5.73x    frame= 1532 fps=137 q=32.0 size=    4456kB time=00:01:04.06 bitrate= 569.7kbits/s dup=1 drop=0 speed=5.72x    frame= 1604 fps=137 q=32.0 size=    4636kB time=00:01:07.05 bitrate= 566.4kbits/s dup=1 drop=0 speed=5.73x    frame= 1666 fps=136 q=32.0 size=    4829kB time=00:01:09.61 bitrate= 568.3kbits/s dup=1 drop=0 speed= 5.7x    frame= 1727 fps=136 q=32.0 size=    4987kB time=00:01:12.17 bitrate= 566.0kbits/s dup=1 drop=0 speed=5.68x    frame= 1782 fps=135 q=32.0 size=    5233kB time=00:01:14.47 bitrate= 575.6kbits/s dup=1 drop=0 speed=5.64x    frame= 1821 fps=133 q=32.0 size=    5456kB time=00:01:16.09 bitrate= 587.3kbits/s dup=1 drop=0 speed=5.55x    frame= 1871 fps=132 q=32.0 size=    5705kB time=00:01:18.18 bitrate= 597.7kbits/s dup=1 drop=0 speed= 5.5x    frame= 1929 fps=131 q=32.0 size=    5899kB time=00:01:20.61 bitrate= 599.4kbits/s dup=1 drop=0 speed=5.47x    frame= 2006 fps=132 q=32.0 size=    6058kB time=00:01:23.81 bitrate= 592.1kbits/s dup=1 drop=0 speed= 5.5x    frame= 2095 fps=133 q=32.0 size=    6205kB time=00:01:27.53 bitrate= 580.7kbits/s dup=1 drop=0 speed=5.56x    frame= 2227 fps=137 q=32.0 size=    6378kB time=00:01:33.03 bitrate= 561.6kbits/s dup=1 drop=0 speed=5.72x    frame= 2371 fps=142 q=32.0 size=    6518kB time=00:01:39.05 bitrate= 539.0kbits/s dup=1 drop=0 speed=5.91x    frame= 2507 fps=145 q=32.0 size=    6676kB time=00:01:44.72 bitrate= 522.2kbits/s dup=1 drop=0 speed=6.06x    frame= 2565 fps=144 q=32.0 size=    6863kB time=00:01:47.11 bitrate= 524.9kbits/s dup=1 drop=0 speed=6.01x    frame= 2631 fps=144 q=32.0 size=    7144kB time=00:01:49.88 bitrate= 532.6kbits/s dup=1 drop=0 speed=   6x    frame= 2730 fps=145 q=32.0 size=    7315kB time=00:01:54.02 bitrate= 525.5kbits/s dup=1 drop=0 speed=6.06x    frame= 2838 fps=147 q=32.0 size=    7432kB time=00:01:58.55 bitrate= 513.5kbits/s dup=1 drop=0 speed=6.14x    frame= 2949 fps=149 q=32.0 size=    7579kB time=00:02:03.15 bitrate= 504.2kbits/s dup=1 drop=0 speed=6.21x    frame= 3028 fps=149 q=32.0 size=    7746kB time=00:02:06.44 bitrate= 501.8kbits/s dup=1 drop=0 speed=6.22x    frame= 3069 fps=147 q=32.0 size=    7869kB time=00:02:08.15 bitrate= 503.0kbits/s dup=1 drop=0 speed=6.14x    frame= 3121 fps=146 q=32.0 size=    7970kB time=00:02:10.32 bitrate= 501.0kbits/s dup=1 drop=0 speed= 6.1x    frame= 3185 fps=146 q=32.0 size=    8070kB time=00:02:13.01 bitrate= 497.0kbits/s dup=1 drop=0 speed=6.08x    frame= 3224 fps=144 q=32.0 size=    8176kB time=00:02:14.63 bitrate= 497.4kbits/s dup=1 drop=0 speed=   6x    frame= 3262 fps=142 q=32.0 size=    8278kB time=00:02:16.21 bitrate= 497.8kbits/s dup=1 drop=0 speed=5.94x    frame= 3308 fps=141 q=32.0 size=    8387kB time=00:02:18.13 bitrate= 497.4kbits/s dup=1 drop=0 speed=5.89x    frame= 3369 fps=141 q=32.0 size=    8491kB time=00:02:20.65 bitrate= 494.5kbits/s dup=1 drop=0 speed=5.87x    frame= 3420 fps=140 q=32.0 size=    8567kB time=00:02:22.78 bitrate= 491.5kbits/s dup=1 drop=0 speed=5.83x    frame= 3465 fps=139 q=32.0 size=    8655kB time=00:02:24.70 bitrate= 490.0kbits/s dup=1 drop=0 speed=5.79x    frame= 3519 fps=138 q=29.0 size=    8723kB time=00:02:26.92 bitrate= 486.4kbits/s dup=1 drop=0 speed=5.77x    frame= 3591 fps=138 q=32.0 size=    8852kB time=00:02:29.91 bitrate= 483.7kbits/s dup=1 drop=0 speed=5.77x    frame= 3663 fps=138 q=32.0 size=    8937kB time=00:02:32.93 bitrate= 478.7kbits/s dup=1 drop=0 speed=5.77x    frame= 3735 fps=138 q=32.0 size=    9040kB time=00:02:35.92 bitrate= 474.9kbits/s dup=1 drop=0 speed=5.78x    frame= 3804 fps=138 q=32.0 size=    9102kB time=00:02:38.82 bitrate= 469.4kbits/s dup=1 drop=0 speed=5.78x    frame= 3866 fps=138 q=32.0 size=    9233kB time=00:02:41.38 bitrate= 468.6kbits/s dup=1 drop=0 speed=5.76x    frame= 3956 fps=139 q=32.0 size=    9299kB time=00:02:45.14 bitrate= 461.3kbits/s dup=1 drop=0 speed=5.79x    frame= 4025 fps=139 q=32.0 size=    9378kB time=00:02:48.04 bitrate= 457.2kbits/s dup=1 drop=0 speed=5.79x    frame= 4076 fps=138 q=32.0 size=    9463kB time=00:02:50.17 bitrate= 455.5kbits/s dup=1 drop=0 speed=5.77x    frame= 4128 fps=137 q=32.0 size=    9541kB time=00:02:52.31 bitrate= 453.6kbits/s dup=1 drop=0 speed=5.74x    frame= 4199 fps=138 q=32.0 size=    9639kB time=00:02:55.29 bitrate= 450.4kbits/s dup=1 drop=0 speed=5.74x    frame= 4275 fps=138 q=32.0 size=    9745kB time=00:02:58.45 bitrate= 447.3kbits/s dup=1 drop=0 speed=5.75x    frame= 4364 fps=138 q=32.0 size=    9840kB time=00:03:02.16 bitrate= 442.5kbits/s dup=1 drop=0 speed=5.77x    frame= 4441 fps=139 q=32.0 size=    9917kB time=00:03:05.36 bitrate= 438.2kbits/s dup=1 drop=0 speed=5.78x    frame= 4514 fps=139 q=32.0 size=   10008kB time=00:03:08.39 bitrate= 435.2kbits/s dup=1 drop=0 speed=5.79x    frame= 4597 fps=139 q=32.0 size=   10117kB time=00:03:11.89 bitrate= 431.9kbits/s dup=1 drop=0 speed=5.81x    frame= 4683 fps=139 q=32.0 size=   10211kB time=00:03:15.47 bitrate= 427.9kbits/s dup=1 drop=0 speed=5.82x    frame= 4743 fps=139 q=32.0 size=   10302kB time=00:03:17.99 bitrate= 426.2kbits/s dup=1 drop=0 speed=5.81x    frame= 4810 fps=139 q=32.0 size=   10387kB time=00:03:20.76 bitrate= 423.8kbits/s dup=1 drop=0 speed=5.81x    frame= 4863 fps=139 q=32.0 size=   10456kB time=00:03:22.98 bitrate= 422.0kbits/s dup=1 drop=0 speed=5.79x    frame= 4958 fps=139 q=32.0 size=   10558kB time=00:03:26.95 bitrate= 417.9kbits/s dup=1 drop=0 speed=5.82x    frame= 5045 fps=140 q=32.0 size=   10681kB time=00:03:30.58 bitrate= 415.5kbits/s dup=1 drop=0 speed=5.83x    frame= 5114 fps=140 q=32.0 size=   10802kB time=00:03:33.44 bitrate= 414.6kbits/s dup=1 drop=0 speed=5.83x    frame= 5201 fps=140 q=32.0 size=   10909kB time=00:03:37.06 bitrate= 411.7kbits/s dup=1 drop=0 speed=5.85x    frame= 5281 fps=140 q=32.0 size=   10985kB time=00:03:40.39 bitrate= 408.3kbits/s dup=1 drop=0 speed=5.86x    frame= 5345 fps=140 q=32.0 size=   11071kB time=00:03:43.08 bitrate= 406.5kbits/s dup=1 drop=0 speed=5.85x    frame= 5423 fps=140 q=32.0 size=   11173kB time=00:03:46.32 bitrate= 404.4kbits/s dup=1 drop=0 speed=5.86x    frame= 5489 fps=140 q=32.0 size=   11287kB time=00:03:49.09 bitrate= 403.6kbits/s dup=1 drop=0 speed=5.85x    frame= 5570 fps=140 q=32.0 size=   11406kB time=00:03:52.47 bitrate= 401.9kbits/s dup=1 drop=0 speed=5.86x    frame= 5650 fps=141 q=32.0 size=   11470kB time=00:03:55.84 bitrate= 398.4kbits/s dup=1 drop=0 speed=5.87x    frame= 5719 fps=141 q=32.0 size=   11601kB time=00:03:58.65 bitrate= 398.2kbits/s dup=1 drop=0 speed=5.87x    frame= 5791 fps=141 q=32.0 size=   11694kB time=00:04:01.68 bitrate= 396.4kbits/s dup=1 drop=0 speed=5.87x    frame= 5851 fps=140 q=32.0 size=   11808kB time=00:04:04.20 bitrate= 396.1kbits/s dup=1 drop=0 speed=5.86x    frame= 5942 fps=141 q=32.0 size=   11872kB time=00:04:08.00 bitrate= 392.1kbits/s dup=1 drop=0 speed=5.88x    frame= 6008 fps=141 q=32.0 size=   12017kB time=00:04:10.73 bitrate= 392.6kbits/s dup=1 drop=0 speed=5.87x    frame= 6101 fps=141 q=32.0 size=   12094kB time=00:04:14.61 bitrate= 389.1kbits/s dup=1 drop=0 speed=5.89x    frame= 6186 fps=142 q=32.0 size=   12197kB time=00:04:18.15 bitrate= 387.1kbits/s dup=1 drop=0 speed=5.91x    frame= 6275 fps=142 q=32.0 size=   12270kB time=00:04:21.86 bitrate= 383.9kbits/s dup=1 drop=0 speed=5.92x    frame= 6363 fps=142 q=32.0 size=   12370kB time=00:04:25.57 bitrate= 381.6kbits/s dup=1 drop=0 speed=5.94x    frame= 6445 fps=143 q=32.0 size=   12474kB time=00:04:28.95 bitrate= 379.9kbits/s dup=1 drop=0 speed=5.95x    frame= 6510 fps=142 q=32.0 size=   12564kB time=00:04:31.68 bitrate= 378.8kbits/s dup=1 drop=0 speed=5.94x    frame= 6567 fps=142 q=32.0 size=   12658kB time=00:04:34.07 bitrate= 378.4kbits/s dup=1 drop=0 speed=5.93x    frame= 6604 fps=141 q=32.0 size=   12795kB time=00:04:35.60 bitrate= 380.3kbits/s dup=1 drop=0 speed=5.89x    frame= 6646 fps=141 q=32.0 size=   12916kB time=00:04:37.35 bitrate= 381.5kbits/s dup=1 drop=0 speed=5.87x    frame= 6690 fps=140 q=32.0 size=   13049kB time=00:04:39.19 bitrate= 382.9kbits/s dup=1 drop=0 speed=5.84x    frame= 6765 fps=140 q=32.0 size=   13135kB time=00:04:42.30 bitrate= 381.2kbits/s dup=1 drop=0 speed=5.85x    frame= 6834 fps=140 q=32.0 size=   13242kB time=00:04:45.20 bitrate= 380.4kbits/s dup=1 drop=0 speed=5.85x    frame= 6888 fps=140 q=32.0 size=   13354kB time=00:04:47.46 bitrate= 380.6kbits/s dup=1 drop=0 speed=5.83x    frame= 6957 fps=140 q=32.0 size=   13475kB time=00:04:50.32 bitrate= 380.2kbits/s dup=1 drop=0 speed=5.83x    frame= 7039 fps=140 q=32.0 size=   13582kB time=00:04:53.69 bitrate= 378.8kbits/s dup=1 drop=0 speed=5.84x    frame= 7106 fps=140 q=32.0 size=   13693kB time=00:04:56.55 bitrate= 378.2kbits/s dup=1 drop=0 speed=5.84x    frame= 7168 fps=140 q=32.0 size=   13785kB time=00:04:59.11 bitrate= 377.5kbits/s dup=1 drop=0 speed=5.83x    frame= 7231 fps=140 q=32.0 size=   13865kB time=00:05:01.76 bitrate= 376.4kbits/s dup=1 drop=0 speed=5.82x    frame= 7279 fps=139 q=32.0 size=   13934kB time=00:05:03.72 bitrate= 375.8kbits/s dup=1 drop=0 speed=5.81x    frame= 7326 fps=139 q=32.0 size=   14035kB time=00:05:05.72 bitrate= 376.1kbits/s dup=1 drop=0 speed=5.79x    frame= 7365 fps=138 q=32.0 size=   14145kB time=00:05:07.35 bitrate= 377.0kbits/s dup=1 drop=0 speed=5.76x    frame= 7407 fps=138 q=32.0 size=   14266kB time=00:05:09.09 bitrate= 378.1kbits/s dup=1 drop=0 speed=5.74x    frame= 7475 fps=137 q=32.0 size=   14338kB time=00:05:11.91 bitrate= 376.6kbits/s dup=1 drop=0 speed=5.74x    frame= 7540 fps=137 q=32.0 size=   14430kB time=00:05:14.64 bitrate= 375.7kbits/s dup=1 drop=0 speed=5.73x    frame= 7590 fps=137 q=32.0 size=   14547kB time=00:05:16.73 bitrate= 376.2kbits/s dup=1 drop=0 speed=5.72x    frame= 7653 fps=137 q=32.0 size=   14661kB time=00:05:19.33 bitrate= 376.1kbits/s dup=1 drop=0 speed=5.71x    frame= 7730 fps=137 q=32.0 size=   14746kB time=00:05:22.53 bitrate= 374.5kbits/s dup=1 drop=0 speed=5.72x    frame= 7836 fps=138 q=32.0 size=   14829kB time=00:05:26.97 bitrate= 371.5kbits/s dup=1 drop=0 speed=5.74x    frame= 7907 fps=138 q=32.0 size=   14941kB time=00:05:29.96 bitrate= 370.9kbits/s dup=1 drop=0 speed=5.74x    frame= 7959 fps=137 q=32.0 size=   15039kB time=00:05:32.09 bitrate= 371.0kbits/s dup=1 drop=0 speed=5.73x    frame= 8037 fps=137 q=32.0 size=   15140kB time=00:05:35.38 bitrate= 369.8kbits/s dup=1 drop=0 speed=5.74x    frame= 8113 fps=138 q=32.0 size=   15242kB time=00:05:38.53 bitrate= 368.8kbits/s dup=1 drop=0 speed=5.74x    frame= 8184 fps=138 q=32.0 size=   15323kB time=00:05:41.48 bitrate= 367.6kbits/s dup=1 drop=0 speed=5.74x    frame= 8266 fps=138 q=32.0 size=   15416kB time=00:05:44.93 bitrate= 366.1kbits/s dup=1 drop=0 speed=5.75x    frame= 8326 fps=138 q=32.0 size=   15498kB time=00:05:47.41 bitrate= 365.4kbits/s dup=1 drop=0 speed=5.74x    frame= 8408 fps=138 q=32.0 size=   15603kB time=00:05:50.82 bitrate= 364.3kbits/s dup=1 drop=0 speed=5.75x    frame= 8469 fps=138 q=32.0 size=   15712kB time=00:05:53.38 bitrate= 364.2kbits/s dup=1 drop=0 speed=5.74x    frame= 8539 fps=138 q=32.0 size=   15807kB time=00:05:56.28 bitrate= 363.4kbits/s dup=1 drop=0 speed=5.74x    frame= 8584 fps=137 q=32.0 size=   15891kB time=00:05:58.16 bitrate= 363.5kbits/s dup=1 drop=0 speed=5.73x    frame= 8627 fps=137 q=29.0 size=   15980kB time=00:05:59.95 bitrate= 363.7kbits/s dup=1 drop=0 speed=5.71x    frame= 8677 fps=137 q=32.0 size=   16080kB time=00:06:02.04 bitrate= 363.8kbits/s dup=1 drop=0 speed= 5.7x    frame= 8743 fps=136 q=32.0 size=   16176kB time=00:06:04.82 bitrate= 363.2kbits/s dup=1 drop=0 speed= 5.7x    frame= 8825 fps=137 q=32.0 size=   16267kB time=00:06:08.23 bitrate= 361.9kbits/s dup=1 drop=0 speed= 5.7x    frame= 8898 fps=137 q=32.0 size=   16371kB time=00:06:11.26 bitrate= 361.2kbits/s dup=1 drop=0 speed=5.71x    frame= 8974 fps=137 q=32.0 size=   16472kB time=00:06:14.46 bitrate= 360.4kbits/s dup=1 drop=0 speed=5.71x    frame= 9035 fps=137 q=32.0 size=   16591kB time=00:06:16.98 bitrate= 360.5kbits/s dup=1 drop=0 speed= 5.7x    frame= 9090 fps=136 q=32.0 size=   16708kB time=00:06:19.28 bitrate= 360.9kbits/s dup=1 drop=0 speed=5.69x    frame= 9149 fps=136 q=32.0 size=   16814kB time=00:06:21.76 bitrate= 360.8kbits/s dup=1 drop=0 speed=5.68x    frame= 9229 fps=136 q=32.0 size=   16884kB time=00:06:25.08 bitrate= 359.2kbits/s dup=1 drop=0 speed=5.69x    frame= 9288 fps=136 q=32.0 size=   16998kB time=00:06:27.56 bitrate= 359.3kbits/s dup=1 drop=0 speed=5.68x    frame= 9336 fps=136 q=32.0 size=   17089kB time=00:06:29.52 bitrate= 359.4kbits/s dup=1 drop=0 speed=5.67x    frame= 9388 fps=136 q=32.0 size=   17187kB time=00:06:31.74 bitrate= 359.4kbits/s dup=1 drop=0 speed=5.66x    frame= 9436 fps=135 q=32.0 size=   17261kB time=00:06:33.70 bitrate= 359.2kbits/s dup=1 drop=0 speed=5.64x    frame= 9513 fps=135 q=32.0 size=   17378kB time=00:06:36.95 bitrate= 358.6kbits/s dup=1 drop=0 speed=5.65x    frame= 9599 fps=136 q=32.0 size=   17492kB time=00:06:40.49 bitrate= 357.8kbits/s dup=1 drop=0 speed=5.66x    frame= 9663 fps=136 q=32.0 size=   17596kB time=00:06:43.17 bitrate= 357.5kbits/s dup=1 drop=0 speed=5.65x    frame= 9748 fps=136 q=32.0 size=   17672kB time=00:06:46.72 bitrate= 355.9kbits/s dup=1 drop=0 speed=5.66x    frame= 9828 fps=136 q=32.0 size=   17759kB time=00:06:50.04 bitrate= 354.8kbits/s dup=1 drop=0 speed=5.67x    frame= 9883 fps=136 q=32.0 size=   17855kB time=00:06:52.35 bitrate= 354.7kbits/s dup=1 drop=0 speed=5.66x    frame= 9936 fps=136 q=32.0 size=   17926kB time=00:06:54.57 bitrate= 354.2kbits/s dup=1 drop=0 speed=5.66x    frame= 9990 fps=135 q=32.0 size=   17993kB time=00:06:56.83 bitrate= 353.6kbits/s dup=1 drop=0 speed=5.65x    frame=10046 fps=135 q=32.0 size=   18066kB time=00:06:59.17 bitrate= 353.1kbits/s dup=1 drop=0 speed=5.64x    frame=10097 fps=135 q=32.0 size=   18164kB time=00:07:01.31 bitrate= 353.2kbits/s dup=1 drop=0 speed=5.63x    frame=10173 fps=135 q=32.0 size=   18270kB time=00:07:04.47 bitrate= 352.6kbits/s dup=1 drop=0 speed=5.63x    frame=10263 fps=135 q=32.0 size=   18345kB time=00:07:08.22 bitrate= 350.9kbits/s dup=1 drop=0 speed=5.65x    frame=10357 fps=136 q=32.0 size=   18449kB time=00:07:12.15 bitrate= 349.7kbits/s dup=1 drop=0 speed=5.66x    frame=10435 fps=136 q=32.0 size=   18529kB time=00:07:15.39 bitrate= 348.6kbits/s dup=1 drop=0 speed=5.67x    frame=10497 fps=136 q=32.0 size=   18635kB time=00:07:17.99 bitrate= 348.5kbits/s dup=1 drop=0 speed=5.66x    frame=10549 fps=135 q=32.0 size=   18716kB time=00:07:20.12 bitrate= 348.4kbits/s dup=1 drop=0 speed=5.65x    frame=10626 fps=136 q=32.0 size=   18814kB time=00:07:23.37 bitrate= 347.6kbits/s dup=1 drop=0 speed=5.66x    frame=10710 fps=136 q=32.0 size=   18914kB time=00:07:26.87 bitrate= 346.7kbits/s dup=1 drop=0 speed=5.67x    frame=10758 fps=136 q=32.0 size=   18998kB time=00:07:28.83 bitrate= 346.7kbits/s dup=1 drop=0 speed=5.65x    frame=10830 fps=136 q=32.0 size=   19110kB time=00:07:31.86 bitrate= 346.5kbits/s dup=1 drop=0 speed=5.66x    frame=10916 fps=136 q=32.0 size=   19191kB time=00:07:35.44 bitrate= 345.2kbits/s dup=1 drop=0 speed=5.67x    frame=11011 fps=136 q=32.0 size=   19259kB time=00:07:39.41 bitrate= 343.4kbits/s dup=1 drop=0 speed=5.68x    frame=11091 fps=136 q=32.0 size=   19348kB time=00:07:42.74 bitrate= 342.5kbits/s dup=1 drop=0 speed=5.68x    frame=11202 fps=137 q=32.0 size=   19429kB time=00:07:47.39 bitrate= 340.5kbits/s dup=1 drop=0 speed=5.71x    frame=11276 fps=137 q=32.0 size=   19530kB time=00:07:50.46 bitrate= 340.1kbits/s dup=1 drop=0 speed=5.71x    frame=11315 fps=136 q=32.0 size=   19638kB time=00:07:52.08 bitrate= 340.8kbits/s dup=1 drop=0 speed=5.69x    frame=11383 fps=136 q=32.0 size=   19745kB time=00:07:54.94 bitrate= 340.6kbits/s dup=1 drop=0 speed=5.69x    frame=11472 fps=137 q=32.0 size=   19820kB time=00:07:58.61 bitrate= 339.2kbits/s dup=1 drop=0 speed= 5.7x    frame=11537 fps=137 q=32.0 size=   19922kB time=00:08:01.34 bitrate= 339.0kbits/s dup=1 drop=0 speed= 5.7x    frame=11622 fps=137 q=32.0 size=   20000kB time=00:08:04.88 bitrate= 337.9kbits/s dup=1 drop=0 speed=5.71x    frame=11670 fps=137 q=32.0 size=   20113kB time=00:08:06.89 bitrate= 338.4kbits/s dup=1 drop=0 speed= 5.7x    frame=11747 fps=137 q=32.0 size=   20224kB time=00:08:10.09 bitrate= 338.1kbits/s dup=1 drop=0 speed= 5.7x    frame=11851 fps=137 q=32.0 size=   20317kB time=00:08:14.44 bitrate= 336.6kbits/s dup=1 drop=0 speed=5.72x    frame=11940 fps=137 q=32.0 size=   20411kB time=00:08:18.15 bitrate= 335.6kbits/s dup=1 drop=0 speed=5.73x    frame=11985 fps=137 q=32.0 size=   20484kB time=00:08:20.03 bitrate= 335.6kbits/s dup=1 drop=0 speed=5.72x    frame=12039 fps=137 q=32.0 size=   20565kB time=00:08:22.29 bitrate= 335.4kbits/s dup=1 drop=0 speed=5.71x    frame=12100 fps=137 q=32.0 size=   20665kB time=00:08:24.85 bitrate= 335.3kbits/s dup=1 drop=0 speed=5.71x    frame=12135 fps=136 q=32.0 size=   20780kB time=00:08:26.26 bitrate= 336.3kbits/s dup=1 drop=0 speed=5.69x    frame=12167 fps=136 q=32.0 size=   20891kB time=00:08:27.62 bitrate= 337.1kbits/s dup=1 drop=0 speed=5.67x    frame=12203 fps=136 q=32.0 size=   21027kB time=00:08:29.12 bitrate= 338.3kbits/s dup=1 drop=0 speed=5.66x    frame=12271 fps=136 q=32.0 size=   21173kB time=00:08:31.97 bitrate= 338.8kbits/s dup=1 drop=0 speed=5.66x    frame=12339 fps=136 q=32.0 size=   21342kB time=00:08:34.79 bitrate= 339.6kbits/s dup=1 drop=0 speed=5.66x    frame=12430 fps=136 q=32.0 size=   21470kB time=00:08:38.63 bitrate= 339.1kbits/s dup=1 drop=0 speed=5.67x    frame=12511 fps=136 q=32.0 size=   21607kB time=00:08:41.96 bitrate= 339.1kbits/s dup=1 drop=0 speed=5.67x    frame=12603 fps=136 q=32.0 size=   21703kB time=00:08:45.80 bitrate= 338.1kbits/s dup=1 drop=0 speed=5.68x    frame=12717 fps=137 q=32.0 size=   21768kB time=00:08:50.58 bitrate= 336.1kbits/s dup=1 drop=0 speed= 5.7x    frame=12800 fps=137 q=32.0 size=   21893kB time=00:08:54.03 bitrate= 335.8kbits/s dup=1 drop=0 speed=5.71x    frame=12891 fps=137 q=32.0 size=   22001kB time=00:08:57.83 bitrate= 335.1kbits/s dup=1 drop=0 speed=5.72x    frame=12976 fps=137 q=32.0 size=   22076kB time=00:09:01.37 bitrate= 334.0kbits/s dup=1 drop=0 speed=5.73x    frame=13030 fps=137 q=32.0 size=   22192kB time=00:09:03.63 bitrate= 334.4kbits/s dup=1 drop=0 speed=5.72x    frame=13095 fps=137 q=32.0 size=   22286kB time=00:09:06.32 bitrate= 334.2kbits/s dup=1 drop=0 speed=5.72x    frame=13143 fps=137 q=32.0 size=   22339kB time=00:09:08.33 bitrate= 333.7kbits/s dup=1 drop=0 speed=5.71x    frame=13205 fps=137 q=32.0 size=   22405kB time=00:09:10.93 bitrate= 333.1kbits/s dup=1 drop=0 speed= 5.7x    frame=13256 fps=137 q=32.0 size=   22465kB time=00:09:13.06 bitrate= 332.7kbits/s dup=1 drop=0 speed= 5.7x    frame=13318 fps=136 q=32.0 size=   22552kB time=00:09:15.58 bitrate= 332.5kbits/s dup=1 drop=0 speed=5.69x    frame=13363 fps=136 q=32.0 size=   22624kB time=00:09:17.50 bitrate= 332.4kbits/s dup=1 drop=0 speed=5.68x    frame=13419 fps=136 q=32.0 size=   22707kB time=00:09:19.85 bitrate= 332.3kbits/s dup=1 drop=0 speed=5.68x    frame=13479 fps=136 q=32.0 size=   22798kB time=00:09:22.32 bitrate= 332.1kbits/s dup=1 drop=0 speed=5.67x    frame=13533 fps=136 q=32.0 size=   22878kB time=00:09:24.58 bitrate= 332.0kbits/s dup=1 drop=0 speed=5.67x    frame=13639 fps=136 q=32.0 size=   22965kB time=00:09:29.02 bitrate= 330.6kbits/s dup=1 drop=0 speed=5.68x    frame=13726 fps=136 q=32.0 size=   23066kB time=00:09:32.65 bitrate= 330.0kbits/s dup=1 drop=0 speed=5.69x    frame=13787 fps=136 q=32.0 size=   23195kB time=00:09:35.16 bitrate= 330.4kbits/s dup=1 drop=0 speed=5.69x    frame=13836 fps=136 q=32.0 size=   23339kB time=00:09:37.25 bitrate= 331.2kbits/s dup=1 drop=0 speed=5.68x    frame=13887 fps=136 q=32.0 size=   23447kB time=00:09:39.35 bitrate= 331.5kbits/s dup=1 drop=0 speed=5.67x    frame=13927 fps=136 q=32.0 size=   23558kB time=00:09:41.05 bitrate= 332.1kbits/s dup=1 drop=0 speed=5.66x    frame=14016 fps=136 q=32.0 size=   23692kB time=00:09:44.72 bitrate= 331.9kbits/s dup=1 drop=0 speed=5.67x    frame=14076 fps=136 q=32.0 size=   23789kB time=00:09:47.24 bitrate= 331.9kbits/s dup=1 drop=0 speed=5.67x    frame=14162 fps=136 q=32.0 size=   23874kB time=00:09:50.82 bitrate= 331.0kbits/s dup=1 drop=0 speed=5.67x    frame=14250 fps=136 q=32.0 size=   23988kB time=00:09:54.49 bitrate= 330.6kbits/s dup=1 drop=0 speed=5.68x    frame=14301 fps=136 q=32.0 size=   24088kB time=00:09:56.63 bitrate= 330.7kbits/s dup=1 drop=0 speed=5.67x    frame=14364 fps=136 q=32.0 size=   24205kB time=00:09:59.27 bitrate= 330.9kbits/s dup=1 drop=0 speed=5.67x    frame=14434 fps=136 q=32.0 size=   24310kB time=00:10:02.17 bitrate= 330.7kbits/s dup=1 drop=0 speed=5.67x    frame=14504 fps=136 q=32.0 size=   24428kB time=00:10:05.07 bitrate= 330.7kbits/s dup=1 drop=0 speed=5.67x    frame=14598 fps=136 q=32.0 size=   24523kB time=00:10:09.00 bitrate= 329.9kbits/s dup=1 drop=0 speed=5.68x    frame=14668 fps=136 q=32.0 size=   24596kB time=00:10:11.94 bitrate= 329.3kbits/s dup=1 drop=0 speed=5.68x    frame=14769 fps=137 q=32.0 size=   24698kB time=00:10:16.17 bitrate= 328.4kbits/s dup=1 drop=0 speed= 5.7x    frame=14856 fps=137 q=32.0 size=   24821kB time=00:10:19.75 bitrate= 328.1kbits/s dup=1 drop=0 speed= 5.7x    frame=14920 fps=137 q=32.0 size=   24961kB time=00:10:22.44 bitrate= 328.5kbits/s dup=1 drop=0 speed= 5.7x    frame=14995 fps=137 q=32.0 size=   25049kB time=00:10:25.60 bitrate= 328.0kbits/s dup=1 drop=0 speed= 5.7x    frame=15060 fps=137 q=32.0 size=   25145kB time=00:10:28.28 bitrate= 327.9kbits/s dup=1 drop=0 speed= 5.7x    frame=15120 fps=137 q=32.0 size=   25278kB time=00:10:30.80 bitrate= 328.3kbits/s dup=1 drop=0 speed= 5.7x    frame=15198 fps=137 q=32.0 size=   25355kB time=00:10:34.04 bitrate= 327.6kbits/s dup=1 drop=0 speed= 5.7x    frame=15288 fps=137 q=32.0 size=   25466kB time=00:10:37.80 bitrate= 327.1kbits/s dup=1 drop=0 speed=5.71x    frame=15369 fps=137 q=32.0 size=   25542kB time=00:10:41.17 bitrate= 326.3kbits/s dup=1 drop=0 speed=5.71x    frame=15414 fps=137 q=32.0 size=   25669kB time=00:10:43.05 bitrate= 327.0kbits/s dup=1 drop=0 speed= 5.7x    frame=15466 fps=136 q=32.0 size=   25810kB time=00:10:45.22 bitrate= 327.7kbits/s dup=1 drop=0 speed=5.69x    frame=15525 fps=136 q=32.0 size=   25918kB time=00:10:47.70 bitrate= 327.8kbits/s dup=1 drop=0 speed=5.69x    frame=15599 fps=136 q=32.0 size=   26000kB time=00:10:50.77 bitrate= 327.3kbits/s dup=1 drop=0 speed=5.69x    frame=15680 fps=137 q=32.0 size=   26084kB time=00:10:54.18 bitrate= 326.6kbits/s dup=1 drop=0 speed= 5.7x    frame=15751 fps=137 q=32.0 size=   26206kB time=00:10:57.13 bitrate= 326.7kbits/s dup=1 drop=0 speed= 5.7x    frame=15828 fps=137 q=32.0 size=   26269kB time=00:11:00.33 bitrate= 325.9kbits/s dup=1 drop=0 speed= 5.7x    frame=15893 fps=137 q=32.0 size=   26412kB time=00:11:03.01 bitrate= 326.3kbits/s dup=1 drop=0 speed= 5.7x    frame=15954 fps=137 q=32.0 size=   26547kB time=00:11:05.57 bitrate= 326.7kbits/s dup=1 drop=0 speed= 5.7x    frame=16032 fps=137 q=32.0 size=   26668kB time=00:11:08.82 bitrate= 326.6kbits/s dup=1 drop=0 speed= 5.7x    frame=16106 fps=137 q=32.0 size=   26755kB time=00:11:11.89 bitrate= 326.2kbits/s dup=1 drop=0 speed= 5.7x    frame=16186 fps=137 q=32.0 size=   26899kB time=00:11:15.22 bitrate= 326.3kbits/s dup=1 drop=0 speed= 5.7x    frame=16251 fps=137 q=32.0 size=   27007kB time=00:11:17.95 bitrate= 326.3kbits/s dup=1 drop=0 speed= 5.7x    frame=16323 fps=137 q=32.0 size=   27104kB time=00:11:20.98 bitrate= 326.1kbits/s dup=1 drop=0 speed= 5.7x    frame=16383 fps=137 q=32.0 size=   27198kB time=00:11:23.45 bitrate= 326.0kbits/s dup=1 drop=0 speed= 5.7x    frame=16466 fps=137 q=32.0 size=   27284kB time=00:11:26.91 bitrate= 325.4kbits/s dup=1 drop=0 speed= 5.7x    frame=16528 fps=137 q=32.0 size=   27377kB time=00:11:29.51 bitrate= 325.3kbits/s dup=1 drop=0 speed= 5.7x    frame=16601 fps=137 q=32.0 size=   27463kB time=00:11:32.58 bitrate= 324.8kbits/s dup=1 drop=0 speed= 5.7x    frame=16666 fps=137 q=32.0 size=   27561kB time=00:11:35.27 bitrate= 324.7kbits/s dup=1 drop=0 speed= 5.7x    frame=16738 fps=137 q=32.0 size=   27663kB time=00:11:38.26 bitrate= 324.5kbits/s dup=1 drop=0 speed= 5.7x    frame=16807 fps=137 q=32.0 size=   27816kB time=00:11:41.16 bitrate= 325.0kbits/s dup=1 drop=0 speed= 5.7x    frame=16878 fps=137 q=32.0 size=   27939kB time=00:11:44.10 bitrate= 325.1kbits/s dup=1 drop=0 speed= 5.7x    frame=16951 fps=137 q=32.0 size=   28053kB time=00:11:47.17 bitrate= 325.0kbits/s dup=1 drop=0 speed= 5.7x    frame=17020 fps=137 q=32.0 size=   28203kB time=00:11:50.03 bitrate= 325.4kbits/s dup=1 drop=0 speed= 5.7x    frame=17065 fps=136 q=32.0 size=   28316kB time=00:11:51.91 bitrate= 325.8kbits/s dup=1 drop=0 speed=5.69x    frame=17115 fps=136 q=32.0 size=   28411kB time=00:11:54.00 bitrate= 326.0kbits/s dup=1 drop=0 speed=5.69x    frame=17174 fps=136 q=32.0 size=   28511kB time=00:11:56.43 bitrate= 326.0kbits/s dup=1 drop=0 speed=5.68x    frame=17252 fps=136 q=32.0 size=   28603kB time=00:11:59.72 bitrate= 325.6kbits/s dup=1 drop=0 speed=5.69x    frame=17324 fps=136 q=32.0 size=   28691kB time=00:12:02.71 bitrate= 325.2kbits/s dup=1 drop=0 speed=5.69x    frame=17413 fps=137 q=32.0 size=   28798kB time=00:12:06.42 bitrate= 324.8kbits/s dup=1 drop=0 speed= 5.7x    frame=17468 fps=136 q=32.0 size=   28915kB time=00:12:08.72 bitrate= 325.0kbits/s dup=1 drop=0 speed=5.69x    frame=17584 fps=137 q=32.0 size=   29016kB time=00:12:13.54 bitrate= 324.0kbits/s dup=1 drop=0 speed=5.71x    frame=17685 fps=137 q=32.0 size=   29110kB time=00:12:17.77 bitrate= 323.2kbits/s dup=1 drop=0 speed=5.72x    frame=17784 fps=137 q=32.0 size=   29215kB time=00:12:21.91 bitrate= 322.6kbits/s dup=1 drop=0 speed=5.73x    frame=17857 fps=137 q=32.0 size=   29293kB time=00:12:24.93 bitrate= 322.1kbits/s dup=1 drop=0 speed=5.73x    frame=17907 fps=137 q=32.0 size=   29426kB time=00:12:27.03 bitrate= 322.7kbits/s dup=1 drop=0 speed=5.72x    frame=18017 fps=137 q=32.0 size=   29521kB time=00:12:31.59 bitrate= 321.8kbits/s dup=1 drop=0 speed=5.73x    frame=18108 fps=138 q=32.0 size=   29656kB time=00:12:35.43 bitrate= 321.6kbits/s dup=1 drop=0 speed=5.74x    frame=18194 fps=138 q=32.0 size=   29751kB time=00:12:39.01 bitrate= 321.1kbits/s dup=1 drop=0 speed=5.75x    frame=18286 fps=138 q=32.0 size=   29877kB time=00:12:42.85 bitrate= 320.8kbits/s dup=1 drop=0 speed=5.75x    frame=18370 fps=138 q=32.0 size=   29985kB time=00:12:46.35 bitrate= 320.5kbits/s dup=1 drop=0 speed=5.76x    frame=18473 fps=138 q=32.0 size=   30074kB time=00:12:50.62 bitrate= 319.7kbits/s dup=1 drop=0 speed=5.77x    frame=18581 fps=139 q=32.0 size=   30180kB time=00:12:55.14 bitrate= 319.0kbits/s dup=1 drop=0 speed=5.78x    frame=18694 fps=139 q=32.0 size=   30270kB time=00:12:59.84 bitrate= 318.0kbits/s dup=1 drop=0 speed=5.79x    frame=18788 fps=139 q=32.0 size=   30384kB time=00:13:03.76 bitrate= 317.6kbits/s dup=1 drop=0 speed= 5.8x    frame=18885 fps=139 q=32.0 size=   30479kB time=00:13:07.81 bitrate= 316.9kbits/s dup=1 drop=0 speed=5.81x    frame=18979 fps=139 q=32.0 size=   30587kB time=00:13:11.74 bitrate= 316.5kbits/s dup=1 drop=0 speed=5.82x    frame=19070 fps=140 q=32.0 size=   30705kB time=00:13:15.54 bitrate= 316.2kbits/s dup=1 drop=0 speed=5.82x    frame=19164 fps=140 q=32.0 size=   30796kB time=00:13:19.46 bitrate= 315.6kbits/s dup=1 drop=0 speed=5.83x    frame=19251 fps=140 q=32.0 size=   30898kB time=00:13:23.09 bitrate= 315.2kbits/s dup=1 drop=0 speed=5.83x    frame=19317 fps=140 q=32.0 size=   30978kB time=00:13:25.82 bitrate= 314.9kbits/s dup=1 drop=0 speed=5.83x    frame=19384 fps=140 q=32.0 size=   31088kB time=00:13:28.64 bitrate= 314.9kbits/s dup=1 drop=0 speed=5.83x    frame=19473 fps=140 q=32.0 size=   31199kB time=00:13:32.35 bitrate= 314.6kbits/s dup=1 drop=0 speed=5.84x    frame=19547 fps=140 q=32.0 size=   31304kB time=00:13:35.42 bitrate= 314.5kbits/s dup=1 drop=0 speed=5.84x    frame=19637 fps=140 q=32.0 size=   31406kB time=00:13:39.17 bitrate= 314.1kbits/s dup=1 drop=0 speed=5.84x    frame=19747 fps=140 q=32.0 size=   31534kB time=00:13:43.78 bitrate= 313.6kbits/s dup=1 drop=0 speed=5.86x    frame=19831 fps=140 q=32.0 size=   31689kB time=00:13:47.28 bitrate= 313.8kbits/s dup=1 drop=0 speed=5.86x    frame=19921 fps=141 q=32.0 size=   31888kB time=00:13:51.04 bitrate= 314.3kbits/s dup=1 drop=0 speed=5.86x    frame=20054 fps=141 q=32.0 size=   32017kB time=00:13:56.58 bitrate= 313.5kbits/s dup=1 drop=0 speed=5.88x    frame=20210 fps=142 q=32.0 size=   32164kB time=00:14:03.11 bitrate= 312.5kbits/s dup=1 drop=0 speed=5.91x    frame=20376 fps=142 q=32.0 size=   32300kB time=00:14:10.02 bitrate= 311.3kbits/s dup=1 drop=0 speed=5.94x    frame=20465 fps=142 q=32.0 size=   32482kB time=00:14:13.73 bitrate= 311.7kbits/s dup=1 drop=0 speed=5.94x    frame=20534 fps=142 q=32.0 size=   32643kB time=00:14:16.59 bitrate= 312.2kbits/s dup=1 drop=0 speed=5.94x    frame=20584 fps=142 q=29.0 size=   32835kB time=00:14:18.68 bitrate= 313.3kbits/s dup=1 drop=0 speed=5.93x    frame=20648 fps=142 q=32.0 size=   33085kB time=00:14:21.37 bitrate= 314.6kbits/s dup=1 drop=0 speed=5.93x    frame=20811 fps=143 q=32.0 size=   33237kB time=00:14:28.11 bitrate= 313.6kbits/s dup=1 drop=0 speed=5.96x    frame=20924 fps=143 q=32.0 size=   33345kB time=00:14:32.85 bitrate= 313.0kbits/s dup=1 drop=0 speed=5.97x    frame=21042 fps=143 q=32.0 size=   33475kB time=00:14:37.76 bitrate= 312.4kbits/s dup=1 drop=0 speed=5.98x    frame=21175 fps=144 q=32.0 size=   33624kB time=00:14:43.35 bitrate= 311.8kbits/s dup=1 drop=0 speed=   6x    frame=21334 fps=144 q=32.0 size=   33763kB time=00:14:49.96 bitrate= 310.8kbits/s dup=1 drop=0 speed=6.02x    frame=21492 fps=145 q=32.0 size=   33899kB time=00:14:56.57 bitrate= 309.7kbits/s dup=1 drop=0 speed=6.05x    frame=21576 fps=145 q=32.0 size=   34022kB time=00:15:00.03 bitrate= 309.7kbits/s dup=1 drop=0 speed=6.05x    frame=21670 fps=145 q=32.0 size=   34152kB time=00:15:04.00 bitrate= 309.5kbits/s dup=1 drop=0 speed=6.06x    frame=21784 fps=145 q=32.0 size=   34267kB time=00:15:08.73 bitrate= 308.9kbits/s dup=1 drop=0 speed=6.07x    frame=21861 fps=145 q=32.0 size=   34403kB time=00:15:11.93 bitrate= 309.0kbits/s dup=1 drop=0 speed=6.07x    frame=22009 fps=146 q=32.0 size=   34549kB time=00:15:18.12 bitrate= 308.3kbits/s dup=1 drop=0 speed=6.09x    frame=22119 fps=146 q=32.0 size=   34712kB time=00:15:22.68 bitrate= 308.2kbits/s dup=1 drop=0 speed= 6.1x    frame=22201 fps=146 q=32.0 size=   34823kB time=00:15:26.14 bitrate= 308.0kbits/s dup=1 drop=0 speed= 6.1x    frame=22288 fps=146 q=32.0 size=   34927kB time=00:15:29.77 bitrate= 307.7kbits/s dup=1 drop=0 speed= 6.1x    frame=22385 fps=146 q=32.0 size=   35048kB time=00:15:33.82 bitrate= 307.5kbits/s dup=1 drop=0 speed=6.11x    frame=22520 fps=147 q=32.0 size=   35202kB time=00:15:39.41 bitrate= 307.0kbits/s dup=1 drop=0 speed=6.13x    frame=22655 fps=147 q=32.0 size=   35321kB time=00:15:45.08 bitrate= 306.2kbits/s dup=1 drop=0 speed=6.14x    frame=22770 fps=148 q=32.0 size=   35478kB time=00:15:49.86 bitrate= 306.0kbits/s dup=1 drop=0 speed=6.15x    frame=22849 fps=148 q=32.0 size=   35612kB time=00:15:53.15 bitrate= 306.1kbits/s dup=1 drop=0 speed=6.16x    frame=22967 fps=148 q=32.0 size=   35754kB time=00:15:58.05 bitrate= 305.7kbits/s dup=1 drop=0 speed=6.17x    frame=23069 fps=148 q=32.0 size=   35903kB time=00:16:02.32 bitrate= 305.6kbits/s dup=1 drop=0 speed=6.17x    frame=23189 fps=148 q=32.0 size=   36061kB time=00:16:07.36 bitrate= 305.4kbits/s dup=1 drop=0 speed=6.18x    frame=23281 fps=148 q=32.0 size=   36179kB time=00:16:11.20 bitrate= 305.2kbits/s dup=1 drop=0 speed=6.19x    frame=23348 fps=148 q=32.0 size=   36298kB time=00:16:13.97 bitrate= 305.3kbits/s dup=1 drop=0 speed=6.19x    frame=23445 fps=148 q=32.0 size=   36415kB time=00:16:18.02 bitrate= 305.0kbits/s dup=1 drop=0 speed=6.19x    frame=23512 fps=148 q=32.0 size=   36536kB time=00:16:20.80 bitrate= 305.2kbits/s dup=1 drop=0 speed=6.19x    frame=23606 fps=149 q=32.0 size=   36675kB time=00:16:24.72 bitrate= 305.1kbits/s dup=1 drop=0 speed= 6.2x    frame=23690 fps=149 q=32.0 size=   36814kB time=00:16:28.26 bitrate= 305.2kbits/s dup=1 drop=0 speed= 6.2x    frame=23782 fps=149 q=32.0 size=   36956kB time=00:16:32.06 bitrate= 305.2kbits/s dup=1 drop=0 speed= 6.2x    frame=23926 fps=149 q=32.0 size=   37109kB time=00:16:38.08 bitrate= 304.6kbits/s dup=1 drop=0 speed=6.22x    frame=24015 fps=149 q=32.0 size=   37226kB time=00:16:41.79 bitrate= 304.4kbits/s dup=1 drop=0 speed=6.22x    frame=24099 fps=149 q=32.0 size=   37294kB time=00:16:45.29 bitrate= 303.9kbits/s dup=1 drop=0 speed=6.23x    frame=24139 fps=149 q=32.0 size=   37398kB time=00:16:46.95 bitrate= 304.2kbits/s dup=1 drop=0 speed=6.22x    frame=24188 fps=149 q=32.0 size=   37473kB time=00:16:49.00 bitrate= 304.2kbits/s dup=1 drop=0 speed=6.21x    frame=24240 fps=149 q=32.0 size=   37574kB time=00:16:51.17 bitrate= 304.4kbits/s dup=1 drop=0 speed= 6.2x    frame=24293 fps=149 q=32.0 size=   37670kB time=00:16:53.35 bitrate= 304.5kbits/s dup=1 drop=0 speed= 6.2x    frame=24389 fps=149 q=32.0 size=   37751kB time=00:16:57.36 bitrate= 304.0kbits/s dup=1 drop=0 speed= 6.2x    frame=24474 fps=149 q=32.0 size=   37825kB time=00:17:00.95 bitrate= 303.5kbits/s dup=1 drop=0 speed=6.21x    frame=24543 fps=149 q=32.0 size=   37898kB time=00:17:03.80 bitrate= 303.2kbits/s dup=1 drop=0 speed= 6.2x    frame=24610 fps=149 q=32.0 size=   37958kB time=00:17:06.58 bitrate= 302.9kbits/s dup=1 drop=0 speed= 6.2x    frame=24675 fps=149 q=32.0 size=   38025kB time=00:17:09.31 bitrate= 302.6kbits/s dup=1 drop=0 speed= 6.2x    frame=24730 fps=149 q=32.0 size=   38109kB time=00:17:11.61 bitrate= 302.6kbits/s dup=1 drop=0 speed=6.19x    frame=24806 fps=149 q=32.0 size=   38213kB time=00:17:14.77 bitrate= 302.5kbits/s dup=1 drop=0 speed= 6.2x    frame=24906 fps=149 q=32.0 size=   38307kB time=00:17:18.95 bitrate= 302.0kbits/s dup=1 drop=0 speed= 6.2x    frame=24975 fps=149 q=32.0 size=   38379kB time=00:17:21.81 bitrate= 301.8kbits/s dup=1 drop=0 speed= 6.2x    frame=25057 fps=149 q=32.0 size=   38469kB time=00:17:25.22 bitrate= 301.5kbits/s dup=1 drop=0 speed= 6.2x    frame=25123 fps=149 q=32.0 size=   38540kB time=00:17:28.00 bitrate= 301.3kbits/s dup=1 drop=0 speed= 6.2x    frame=25218 fps=149 q=32.0 size=   38615kB time=00:17:31.96 bitrate= 300.7kbits/s dup=1 drop=0 speed= 6.2x    frame=25314 fps=149 q=32.0 size=   38678kB time=00:17:35.97 bitrate= 300.1kbits/s dup=1 drop=0 speed=6.21x    frame=25408 fps=149 q=32.0 size=   38771kB time=00:17:39.86 bitrate= 299.7kbits/s dup=1 drop=0 speed=6.21x    frame=25473 fps=149 q=32.0 size=   38832kB time=00:17:42.59 bitrate= 299.4kbits/s dup=1 drop=0 speed=6.21x    frame=25537 fps=149 q=32.0 size=   38950kB time=00:17:45.28 bitrate= 299.5kbits/s dup=1 drop=0 speed=6.21x    frame=25584 fps=149 q=32.0 size=   39051kB time=00:17:47.24 bitrate= 299.7kbits/s dup=1 drop=0 speed= 6.2x    frame=25635 fps=148 q=32.0 size=   39114kB time=00:17:49.33 bitrate= 299.6kbits/s dup=1 drop=0 speed=6.19x    frame=25693 fps=148 q=32.0 size=   39192kB time=00:17:51.76 bitrate= 299.6kbits/s dup=1 drop=0 speed=6.19x    frame=25746 fps=148 q=32.0 size=   39245kB time=00:17:53.98 bitrate= 299.4kbits/s dup=1 drop=0 speed=6.18x    frame=25803 fps=148 q=32.0 size=   39301kB time=00:17:56.33 bitrate= 299.1kbits/s dup=1 drop=0 speed=6.18x    frame=25879 fps=148 q=32.0 size=   39407kB time=00:17:59.53 bitrate= 299.0kbits/s dup=1 drop=0 speed=6.18x    frame=25942 fps=148 q=32.0 size=   39466kB time=00:18:02.17 bitrate= 298.8kbits/s dup=1 drop=0 speed=6.18x    frame=26024 fps=148 q=32.0 size=   39558kB time=00:18:05.54 bitrate= 298.5kbits/s dup=1 drop=0 speed=6.18x    frame=26111 fps=148 q=32.0 size=   39645kB time=00:18:09.17 bitrate= 298.2kbits/s dup=1 drop=0 speed=6.18x    frame=26211 fps=148 q=32.0 size=   39702kB time=00:18:13.35 bitrate= 297.5kbits/s dup=1 drop=0 speed=6.19x    frame=26279 fps=148 q=32.0 size=   39795kB time=00:18:16.21 bitrate= 297.4kbits/s dup=1 drop=0 speed=6.18x    frame=26338 fps=148 q=32.0 size=   39872kB time=00:18:18.68 bitrate= 297.3kbits/s dup=1 drop=0 speed=6.18x    frame=26383 fps=148 q=32.0 size=   39929kB time=00:18:20.52 bitrate= 297.2kbits/s dup=1 drop=0 speed=6.17x    frame=26429 fps=148 q=32.0 size=   39992kB time=00:18:22.44 bitrate= 297.2kbits/s dup=1 drop=0 speed=6.17x    frame=26474 fps=148 q=32.0 size=   40054kB time=00:18:24.32 bitrate= 297.1kbits/s dup=1 drop=0 speed=6.16x    frame=26520 fps=147 q=32.0 size=   40113kB time=00:18:26.24 bitrate= 297.0kbits/s dup=1 drop=0 speed=6.15x    frame=26572 fps=147 q=32.0 size=   40184kB time=00:18:28.45 bitrate= 297.0kbits/s dup=1 drop=0 speed=6.15x    frame=26622 fps=147 q=32.0 size=   40273kB time=00:18:30.50 bitrate= 297.1kbits/s dup=1 drop=0 speed=6.14x    frame=26665 fps=147 q=32.0 size=   40343kB time=00:18:32.29 bitrate= 297.1kbits/s dup=1 drop=0 speed=6.13x    frame=26711 fps=147 q=32.0 size=   40416kB time=00:18:34.21 bitrate= 297.1kbits/s dup=1 drop=0 speed=6.13x    frame=26751 fps=147 q=32.0 size=   40482kB time=00:18:35.88 bitrate= 297.2kbits/s dup=1 drop=0 speed=6.12x    frame=26811 fps=147 q=32.0 size=   40555kB time=00:18:38.40 bitrate= 297.1kbits/s dup=1 drop=0 speed=6.12x    frame=26857 fps=146 q=32.0 size=   40608kB time=00:18:40.32 bitrate= 296.9kbits/s dup=1 drop=0 speed=6.11x    frame=26902 fps=146 q=32.0 size=   40669kB time=00:18:42.19 bitrate= 296.9kbits/s dup=1 drop=0 speed= 6.1x    frame=26954 fps=146 q=32.0 size=   40763kB time=00:18:44.37 bitrate= 297.0kbits/s dup=1 drop=0 speed= 6.1x    frame=27083 fps=146 q=32.0 size=   40867kB time=00:18:49.75 bitrate= 296.3kbits/s dup=1 drop=0 speed=6.11x    frame=27160 fps=146 q=32.0 size=   41042kB time=00:18:52.95 bitrate= 296.8kbits/s dup=1 drop=0 speed=6.11x    frame=27279 fps=147 q=32.0 size=   41213kB time=00:18:57.89 bitrate= 296.7kbits/s dup=1 drop=0 speed=6.12x    frame=27427 fps=147 q=32.0 size=   41318kB time=00:19:04.08 bitrate= 295.8kbits/s dup=1 drop=0 speed=6.14x    frame=27536 fps=147 q=32.0 size=   41502kB time=00:19:08.65 bitrate= 296.0kbits/s dup=1 drop=0 speed=6.14x    frame=27673 fps=148 q=32.0 size=   41679kB time=00:19:14.36 bitrate= 295.8kbits/s dup=1 drop=0 speed=6.16x    frame=27764 fps=148 q=32.0 size=   41839kB time=00:19:18.12 bitrate= 296.0kbits/s dup=1 drop=0 speed=6.16x    frame=27887 fps=148 q=32.0 size=   42005kB time=00:19:23.28 bitrate= 295.8kbits/s dup=1 drop=0 speed=6.17x    frame=27992 fps=148 q=32.0 size=   42167kB time=00:19:27.68 bitrate= 295.8kbits/s dup=1 drop=0 speed=6.18x    frame=28128 fps=148 q=32.0 size=   42330kB time=00:19:33.35 bitrate= 295.5kbits/s dup=1 drop=0 speed=6.19x    frame=28216 fps=149 q=32.0 size=   42486kB time=00:19:37.02 bitrate= 295.7kbits/s dup=1 drop=0 speed= 6.2x    frame=28325 fps=149 q=32.0 size=   42631kB time=00:19:41.54 bitrate= 295.6kbits/s dup=1 drop=0 speed= 6.2x    frame=28401 fps=149 q=32.0 size=   42729kB time=00:19:44.70 bitrate= 295.5kbits/s dup=1 drop=0 speed= 6.2x    frame=28513 fps=149 q=32.0 size=   42881kB time=00:19:49.39 bitrate= 295.3kbits/s dup=1 drop=0 speed=6.21x    frame=28683 fps=149 q=32.0 size=   43018kB time=00:19:56.48 bitrate= 294.5kbits/s dup=1 drop=0 speed=6.23x    frame=28814 fps=150 q=32.0 size=   43149kB time=00:20:01.94 bitrate= 294.1kbits/s dup=1 drop=0 speed=6.24x    frame=28968 fps=150 q=32.0 size=   43282kB time=00:20:08.38 bitrate= 293.4kbits/s dup=1 drop=0 speed=6.26x    frame=29049 fps=150 q=32.0 size=   43434kB time=00:20:11.71 bitrate= 293.6kbits/s dup=1 drop=0 speed=6.26x    frame=29108 fps=150 q=32.0 size=   43578kB time=00:20:14.18 bitrate= 294.0kbits/s dup=1 drop=0 speed=6.26x    frame=29184 fps=150 q=32.0 size=   43742kB time=00:20:17.38 bitrate= 294.3kbits/s dup=1 drop=0 speed=6.26x    frame=29293 fps=150 q=32.0 size=   43883kB time=00:20:21.91 bitrate= 294.2kbits/s dup=1 drop=0 speed=6.27x    frame=29347 fps=150 q=32.0 size=   44009kB time=00:20:24.17 bitrate= 294.5kbits/s dup=1 drop=0 speed=6.26x    frame=29405 fps=150 q=32.0 size=   44165kB time=00:20:26.60 bitrate= 295.0kbits/s dup=1 drop=0 speed=6.26x    frame=29465 fps=150 q=32.0 size=   44322kB time=00:20:29.07 bitrate= 295.4kbits/s dup=1 drop=0 speed=6.25x    frame=29537 fps=150 q=32.0 size=   44500kB time=00:20:32.10 bitrate= 295.9kbits/s dup=1 drop=0 speed=6.25x    frame=29673 fps=150 q=32.0 size=   44631kB time=00:20:37.78 bitrate= 295.4kbits/s dup=1 drop=0 speed=6.27x    frame=29782 fps=150 q=32.0 size=   44723kB time=00:20:42.30 bitrate= 294.9kbits/s dup=1 drop=0 speed=6.27x    frame=29903 fps=151 q=32.0 size=   44871kB time=00:20:47.38 bitrate= 294.7kbits/s dup=1 drop=0 speed=6.28x    frame=30044 fps=151 q=32.0 size=   44994kB time=00:20:53.27 bitrate= 294.1kbits/s dup=1 drop=0 speed= 6.3x    frame=30159 fps=151 q=32.0 size=   45087kB time=00:20:58.04 bitrate= 293.6kbits/s dup=1 drop=0 speed= 6.3x    frame=30300 fps=151 q=32.0 size=   45207kB time=00:21:03.89 bitrate= 293.0kbits/s dup=1 drop=0 speed=6.32x    frame=30415 fps=152 q=32.0 size=   45305kB time=00:21:08.71 bitrate= 292.5kbits/s dup=1 drop=0 speed=6.33x    frame=30511 fps=152 q=32.0 size=   45405kB time=00:21:12.72 bitrate= 292.3kbits/s dup=1 drop=0 speed=6.33x    frame=30638 fps=152 q=32.0 size=   45542kB time=00:21:18.01 bitrate= 291.9kbits/s dup=1 drop=0 speed=6.34x    frame=30744 fps=152 q=32.0 size=   45669kB time=00:21:22.45 bitrate= 291.7kbits/s dup=1 drop=0 speed=6.35x    frame=30813 fps=152 q=32.0 size=   45767kB time=00:21:25.31 bitrate= 291.7kbits/s dup=1 drop=0 speed=6.34x    frame=30888 fps=152 q=32.0 size=   45877kB time=00:21:28.42 bitrate= 291.7kbits/s dup=1 drop=0 speed=6.34x    frame=30977 fps=152 q=32.0 size=   46027kB time=00:21:32.13 bitrate= 291.8kbits/s dup=1 drop=0 speed=6.35x    frame=31096 fps=152 q=32.0 size=   46148kB time=00:21:37.13 bitrate= 291.4kbits/s dup=1 drop=0 speed=6.36x    frame=31156 fps=152 q=32.0 size=   46281kB time=00:21:39.60 bitrate= 291.7kbits/s dup=1 drop=0 speed=6.35x    frame=31197 fps=152 q=32.0 size=   46365kB time=00:21:41.31 bitrate= 291.9kbits/s dup=1 drop=0 speed=6.34x    frame=31238 fps=152 q=32.0 size=   46448kB time=00:21:43.06 bitrate= 292.0kbits/s dup=1 drop=0 speed=6.34x    frame=31280 fps=152 q=32.0 size=   46524kB time=00:21:44.81 bitrate= 292.1kbits/s dup=1 drop=0 speed=6.33x    frame=31330 fps=152 q=32.0 size=   46629kB time=00:21:46.85 bitrate= 292.3kbits/s dup=1 drop=0 speed=6.33x    frame=31384 fps=152 q=32.0 size=   46704kB time=00:21:49.12 bitrate= 292.3kbits/s dup=1 drop=0 speed=6.32x    frame=31434 fps=151 q=32.0 size=   46810kB time=00:21:51.21 bitrate= 292.5kbits/s dup=1 drop=0 speed=6.32x    frame=31478 fps=151 q=32.0 size=   46898kB time=00:21:53.04 bitrate= 292.6kbits/s dup=1 drop=0 speed=6.31x    frame=31522 fps=151 q=32.0 size=   47018kB time=00:21:54.88 bitrate= 292.9kbits/s dup=1 drop=0 speed= 6.3x    frame=31558 fps=151 q=32.0 size=   47139kB time=00:21:56.41 bitrate= 293.3kbits/s dup=1 drop=0 speed=6.29x    frame=31599 fps=151 q=32.0 size=   47260kB time=00:21:58.08 bitrate= 293.7kbits/s dup=1 drop=0 speed=6.29x    frame=31635 fps=151 q=32.0 size=   47383kB time=00:21:59.57 bitrate= 294.2kbits/s dup=1 drop=0 speed=6.28x    frame=31677 fps=150 q=32.0 size=   47504kB time=00:22:01.32 bitrate= 294.5kbits/s dup=1 drop=0 speed=6.27x    frame=31718 fps=150 q=32.0 size=   47612kB time=00:22:03.07 bitrate= 294.8kbits/s dup=1 drop=0 speed=6.26x    frame=31761 fps=150 q=32.0 size=   47760kB time=00:22:04.86 bitrate= 295.3kbits/s dup=1 drop=0 speed=6.26x    frame=31802 fps=150 q=32.0 size=   47844kB time=00:22:06.57 bitrate= 295.4kbits/s dup=1 drop=0 speed=6.25x    frame=31826 fps=150 q=32.0 size=   47948kB time=00:22:07.55 bitrate= 295.9kbits/s dup=1 drop=0 speed=6.24x    frame=31844 fps=149 q=32.0 size=   48039kB time=00:22:08.32 bitrate= 296.3kbits/s dup=1 drop=0 speed=6.23x    frame=31863 fps=149 q=32.0 size=   48116kB time=00:22:09.13 bitrate= 296.6kbits/s dup=1 drop=0 speed=6.22x    frame=31890 fps=149 q=32.0 size=   48224kB time=00:22:10.24 bitrate= 297.0kbits/s dup=1 drop=0 speed=6.21x    frame=31930 fps=149 q=32.0 size=   48311kB time=00:22:11.90 bitrate= 297.1kbits/s dup=1 drop=0 speed= 6.2x    frame=31959 fps=148 q=32.0 size=   48386kB time=00:22:13.09 bitrate= 297.3kbits/s dup=1 drop=0 speed=6.19x    frame=32002 fps=148 q=32.0 size=   48483kB time=00:22:14.89 bitrate= 297.5kbits/s dup=1 drop=0 speed=6.18x    frame=32049 fps=148 q=32.0 size=   48574kB time=00:22:16.85 bitrate= 297.7kbits/s dup=1 drop=0 speed=6.18x    frame=32111 fps=148 q=32.0 size=   48692kB time=00:22:19.45 bitrate= 297.8kbits/s dup=1 drop=0 speed=6.18x    frame=32154 fps=148 q=32.0 size=   48772kB time=00:22:21.24 bitrate= 297.9kbits/s dup=1 drop=0 speed=6.17x    frame=32209 fps=148 q=32.0 size=   48889kB time=00:22:23.55 bitrate= 298.1kbits/s dup=1 drop=0 speed=6.17x    frame=32237 fps=148 q=32.0 size=   48991kB time=00:22:24.70 bitrate= 298.5kbits/s dup=1 drop=0 speed=6.16x    frame=32265 fps=147 q=32.0 size=   49113kB time=00:22:25.85 bitrate= 298.9kbits/s dup=1 drop=0 speed=6.15x    frame=32296 fps=147 q=32.0 size=   49208kB time=00:22:27.17 bitrate= 299.2kbits/s dup=1 drop=0 speed=6.14x    frame=32324 fps=147 q=32.0 size=   49318kB time=00:22:28.33 bitrate= 299.6kbits/s dup=1 drop=0 speed=6.13x    frame=32368 fps=147 q=32.0 size=   49437kB time=00:22:30.16 bitrate= 300.0kbits/s dup=1 drop=0 speed=6.12x    frame=32433 fps=147 q=32.0 size=   49530kB time=00:22:32.85 bitrate= 299.9kbits/s dup=1 drop=0 speed=6.12x    frame=32476 fps=147 q=32.0 size=   49595kB time=00:22:34.68 bitrate= 299.9kbits/s dup=1 drop=0 speed=6.11x    frame=32517 fps=146 q=32.0 size=   49694kB time=00:22:36.39 bitrate= 300.1kbits/s dup=1 drop=0 speed=6.11x    frame=32554 fps=146 q=32.0 size=   49794kB time=00:22:37.93 bitrate= 300.4kbits/s dup=1 drop=0 speed= 6.1x    frame=32624 fps=146 q=32.0 size=   49858kB time=00:22:40.83 bitrate= 300.1kbits/s dup=1 drop=0 speed= 6.1x    frame=32659 fps=146 q=32.0 size=   50000kB time=00:22:42.32 bitrate= 300.7kbits/s dup=1 drop=0 speed=6.09x    frame=32696 fps=146 q=32.0 size=   50111kB time=00:22:43.86 bitrate= 301.0kbits/s dup=1 drop=0 speed=6.09x    frame=32735 fps=146 q=32.0 size=   50203kB time=00:22:45.48 bitrate= 301.2kbits/s dup=1 drop=0 speed=6.08x    frame=32788 fps=146 q=32.0 size=   50300kB time=00:22:47.70 bitrate= 301.3kbits/s dup=1 drop=0 speed=6.08x    frame=32826 fps=145 q=32.0 size=   50392kB time=00:22:49.28 bitrate= 301.5kbits/s dup=1 drop=0 speed=6.07x    frame=32864 fps=145 q=32.0 size=   50492kB time=00:22:50.85 bitrate= 301.7kbits/s dup=1 drop=0 speed=6.06x    frame=32908 fps=145 q=32.0 size=   50584kB time=00:22:52.69 bitrate= 301.9kbits/s dup=1 drop=0 speed=6.06x    frame=32960 fps=145 q=32.0 size=   50669kB time=00:22:54.87 bitrate= 301.9kbits/s dup=1 drop=0 speed=6.05x    frame=32990 fps=145 q=32.0 size=   50772kB time=00:22:56.10 bitrate= 302.2kbits/s dup=1 drop=0 speed=6.04x    frame=33023 fps=145 q=32.0 size=   50896kB time=00:22:57.51 bitrate= 302.7kbits/s dup=1 drop=0 speed=6.04x    frame=33084 fps=145 q=32.0 size=   51039kB time=00:23:00.03 bitrate= 303.0kbits/s dup=1 drop=0 speed=6.03x    frame=33184 fps=145 q=32.0 size=   51203kB time=00:23:04.21 bitrate= 303.0kbits/s dup=1 drop=0 speed=6.04x    frame=33288 fps=145 q=32.0 size=   51352kB time=00:23:08.52 bitrate= 303.0kbits/s dup=1 drop=0 speed=6.05x    frame=33384 fps=145 q=32.0 size=   51511kB time=00:23:12.53 bitrate= 303.0kbits/s dup=1 drop=0 speed=6.05x    frame=33539 fps=145 q=32.0 size=   51664kB time=00:23:19.01 bitrate= 302.5kbits/s dup=1 drop=0 speed=6.06x    frame=33674 fps=146 q=32.0 size=   51806kB time=00:23:24.65 bitrate= 302.1kbits/s dup=1 drop=0 speed=6.08x    frame=33794 fps=146 q=32.0 size=   51965kB time=00:23:29.64 bitrate= 302.0kbits/s dup=1 drop=0 speed=6.08x    frame=33950 fps=146 q=32.0 size=   52139kB time=00:23:36.17 bitrate= 301.6kbits/s dup=1 drop=0 speed= 6.1x    frame=34112 fps=147 q=32.0 size=   52318kB time=00:23:42.95 bitrate= 301.2kbits/s dup=1 drop=0 speed=6.11x    frame=34259 fps=147 q=32.0 size=   52455kB time=00:23:49.05 bitrate= 300.7kbits/s dup=1 drop=0 speed=6.13x    frame=34344 fps=147 q=32.0 size=   52617kB time=00:23:52.59 bitrate= 300.9kbits/s dup=1 drop=0 speed=6.13x    frame=34423 fps=147 q=32.0 size=   52842kB time=00:23:55.88 bitrate= 301.5kbits/s dup=1 drop=0 speed=6.13x    frame=34523 fps=147 q=32.0 size=   53009kB time=00:24:00.06 bitrate= 301.5kbits/s dup=1 drop=0 speed=6.13x    frame=34607 fps=147 q=32.0 size=   53158kB time=00:24:03.56 bitrate= 301.7kbits/s dup=1 drop=0 speed=6.14x    frame=34711 fps=147 q=32.0 size=   53305kB time=00:24:07.91 bitrate= 301.6kbits/s dup=1 drop=0 speed=6.14x    frame=34808 fps=147 q=32.0 size=   53446kB time=00:24:11.96 bitrate= 301.5kbits/s dup=1 drop=0 speed=6.15x    frame=34900 fps=147 q=32.0 size=   53593kB time=00:24:15.80 bitrate= 301.6kbits/s dup=1 drop=0 speed=6.15x    frame=35191 fps=148 q=32.0 size=   53794kB time=00:24:27.92 bitrate= 300.2kbits/s dup=1 drop=0 speed=6.19x    [mp4 @ 0x3b826e0] Starting second pass: moving the moov atom to the beginning of the file
frame=35259 fps=148 q=-1.0 Lsize=   54676kB time=00:24:30.57 bitrate= 304.6kbits/s dup=1 drop=0 speed=6.19x    
video:44420kB audio:9421kB subtitle:0kB other streams:0kB global headers:0kB muxing overhead: 1.551045%
[libx264 @ 0x3b02a20] frame I:313   Avg QP:21.21  size: 17202
[libx264 @ 0x3b02a20] frame P:11900 Avg QP:24.58  size:  2657
[libx264 @ 0x3b02a20] frame B:23046 Avg QP:29.78  size:   368
[libx264 @ 0x3b02a20] consecutive B-frames:  3.1%  5.7% 70.1% 21.0%
[libx264 @ 0x3b02a20] mb I  I16..4: 31.6% 41.5% 26.9%
[libx264 @ 0x3b02a20] mb P  I16..4:  4.7%  4.0%  1.2%  P16..4: 31.3%  4.6%  3.7%  0.2%  0.0%    skip:50.2%
[libx264 @ 0x3b02a20] mb B  I16..4:  0.3%  0.3%  0.1%  B16..8: 13.4%  0.9%  0.1%  direct: 0.4%  skip:84.5%  L0:39.5% L1:58.7% BI: 1.8%
[libx264 @ 0x3b02a20] 8x8 transform intra:40.8% inter:54.5%
[libx264 @ 0x3b02a20] coded y,uvDC,uvAC intra: 26.9% 55.8% 11.1% inter: 1.9% 5.1% 0.1%
[libx264 @ 0x3b02a20] i16 v,h,dc,p: 50% 27% 14%  9%
[libx264 @ 0x3b02a20] i8 v,h,dc,ddl,ddr,vr,hd,vl,hu: 22% 17% 47%  3%  2%  2%  2%  3%  3%
[libx264 @ 0x3b02a20] i4 v,h,dc,ddl,ddr,vr,hd,vl,hu: 32% 19% 20%  5%  5%  5%  5%  5%  4%
[libx264 @ 0x3b02a20] i8c dc,h,v,p: 43% 24% 26%  7%
[libx264 @ 0x3b02a20] Weighted P-Frames: Y:0.9% UV:0.7%
[libx264 @ 0x3b02a20] ref P L0: 65.1%  9.4% 11.8%  3.9%  2.8%  2.5%  2.1%  1.4%  1.0%  0.0%
[libx264 @ 0x3b02a20] ref B L0: 82.3%  9.3%  3.5%  1.7%  1.3%  1.0%  0.9%
[libx264 @ 0x3b02a20] ref B L1: 90.3%  9.7%
[libx264 @ 0x3b02a20] kb/s:247.44
